<svg width="20" height="16" fill="none" xmlns="http://www.w3.org/2000/svg">
    <path
        d="M16.93 1.326A15.93 15.93 0 0012.86.001a.06.06 0 00-.066.033c-.175.328-.37.756-.506 1.092a14.516 14.516 0 00-4.573 0A11.295 11.295 0 007.2.034.063.063 0 007.135 0C5.707.26 4.34.711 3.065 1.326a.06.06 0 00-.028.024C.444 5.416-.266 9.382.083 13.298c.001.02.011.038.026.05a16.296 16.296 0 004.994 2.65.063.063 0 00.07-.025c.385-.552.728-1.133 1.022-1.744a.068.068 0 00-.035-.093 10.7 10.7 0 01-1.56-.78.07.07 0 01-.007-.112c.105-.082.21-.168.31-.255a.06.06 0 01.065-.009c3.273 1.569 6.817 1.569 10.051 0a.06.06 0 01.066.008c.1.087.205.174.31.256.036.029.034.088-.005.112-.499.306-1.017.564-1.561.78a.068.068 0 00-.034.093c.3.61.643 1.192 1.02 1.743a.062.062 0 00.07.025 16.242 16.242 0 005.003-2.65.069.069 0 00.026-.048c.417-4.528-.699-8.461-2.957-11.948a.052.052 0 00-.026-.025zM6.684 10.914c-.985 0-1.797-.95-1.797-2.116 0-1.166.796-2.116 1.797-2.116 1.01 0 1.814.958 1.798 2.116 0 1.166-.796 2.116-1.798 2.116zm6.646 0c-.986 0-1.797-.95-1.797-2.116 0-1.166.796-2.116 1.797-2.116 1.009 0 1.813.958 1.797 2.116 0 1.166-.788 2.116-1.797 2.116z"
        fill="currentColor" />
</svg>